<?xml version="1.0" ?><svg data-name="Layer 1" id="Layer_1" viewBox="0 0 64 64" xmlns="http://www.w3.org/2000/svg"><title/><circle cx="32" cy="32" r="32"/><ellipse cx="24.56" cy="19.63" rx="2.28" ry="2.77" style="fill:none;stroke:#df2d2d;stroke-linecap:round;stroke-linejoin:round;stroke-width:3px"/><ellipse cx="24.56" cy="19.63" rx="2.28" ry="2.77" style="fill:none;stroke:#df514b;stroke-linecap:round;stroke-linejoin:round;stroke-width:1.5px"/><ellipse cx="24.56" cy="19.63" rx="2.28" ry="2.77" style="fill:none;stroke:#ff9b66;stroke-linecap:round;stroke-linejoin:round;stroke-width:0.5px"/><ellipse cx="44.42" cy="22.11" rx="2.77" ry="2.28" style="fill:none;stroke:#17bc17;stroke-linecap:round;stroke-linejoin:round;stroke-width:3px" transform="translate(8.55 56.39) rotate(-70.15)"/><ellipse cx="44.42" cy="22.11" rx="2.77" ry="2.28" style="fill:none;stroke:lime;stroke-linecap:round;stroke-linejoin:round;stroke-width:1.5px" transform="translate(8.55 56.39) rotate(-70.15)"/><ellipse cx="44.42" cy="22.11" rx="2.77" ry="2.28" style="fill:none;stroke:#e4ffa3;stroke-linecap:round;stroke-linejoin:round;stroke-width:0.5px" transform="translate(8.55 56.39) rotate(-70.15)"/><ellipse cx="31.26" cy="29.2" rx="3.76" ry="4.57" style="fill:none;stroke:#ffb700;stroke-linecap:round;stroke-linejoin:round;stroke-width:3px" transform="translate(-2.58 3.03) rotate(-5.33)"/><ellipse cx="31.26" cy="29.2" rx="3.76" ry="4.57" style="fill:none;stroke:#ff0;stroke-linecap:round;stroke-linejoin:round;stroke-width:1.5px" transform="translate(-2.58 3.03) rotate(-5.33)"/><ellipse cx="31.26" cy="29.2" rx="3.76" ry="4.57" style="fill:none;stroke:#fff;stroke-linecap:round;stroke-linejoin:round;stroke-width:0.5px" transform="translate(-2.58 3.03) rotate(-5.33)"/><path d="M16.06,16.42V13.7A3,3,0,0,1,19,11.59a2.7,2.7,0,0,1,2.81,2" style="fill:none;stroke:#ffb700;stroke-linecap:round;stroke-linejoin:round;stroke-width:3px"/><path d="M17.23,27.75c.71,2.25,1.61,5,2.28,7.06A4.77,4.77,0,0,0,23,38l3.92.86" style="fill:none;stroke:#ffb700;stroke-linecap:round;stroke-linejoin:round;stroke-width:3px"/><path d="M20.62,12s-.24-3.78,3.23-3.79,3.34,2.66,3.3,4.88" style="fill:none;stroke:#ffb700;stroke-linecap:round;stroke-linejoin:round;stroke-width:3px"/><path d="M27,10.3s-.25-3.78,3.22-3.79,3.34,2.66,3.31,4.88" style="fill:none;stroke:#ffb700;stroke-linecap:round;stroke-linejoin:round;stroke-width:3px"/><path d="M33.49,8.7s-.24-3.77,3.23-3.78S40.06,7.57,40,9.8" style="fill:none;stroke:#ffb700;stroke-linecap:round;stroke-linejoin:round;stroke-width:3px"/><path d="M39.9,37.42l5.54-6.78a3.57,3.57,0,0,0,.81-1.94L46.42,27" style="fill:none;stroke:#ffb700;stroke-linecap:round;stroke-linejoin:round;stroke-width:3px"/><path d="M47.32,17.47l.13-1.55a3,3,0,0,0-1.88-3.05l-2.4-.95" style="fill:none;stroke:#ffb700;stroke-linecap:round;stroke-linejoin:round;stroke-width:3px"/><path d="M20.62,40.09,17.92,55s-.4,3.32,15.86,3.32c9.19,0,14.59-4,14.59-4L43.72,37.42" style="fill:none;stroke:#ffb700;stroke-linecap:round;stroke-linejoin:round;stroke-width:3px"/><path d="M21.1,51.83a13.17,13.17,0,0,0,7.83,1.45l1.26-3.15h5.33l1.13,3.29A12.59,12.59,0,0,0,44,52.18L41,41.39" style="fill:none;stroke:#ffb700;stroke-linecap:round;stroke-linejoin:round;stroke-width:3px"/><path d="M16.06,16.42V13.7A3,3,0,0,1,19,11.59a2.7,2.7,0,0,1,2.81,2" style="fill:none;stroke:#ff0;stroke-linecap:round;stroke-linejoin:round;stroke-width:1.5px"/><path d="M17.23,27.75c.71,2.25,1.61,5,2.28,7.06A4.77,4.77,0,0,0,23,38l3.92.86" style="fill:none;stroke:#ff0;stroke-linecap:round;stroke-linejoin:round;stroke-width:1.5px"/><path d="M20.62,12s-.24-3.78,3.23-3.79,3.34,2.66,3.3,4.88" style="fill:none;stroke:#ff0;stroke-linecap:round;stroke-linejoin:round;stroke-width:1.5px"/><path d="M27,10.3s-.25-3.78,3.22-3.79,3.34,2.66,3.31,4.88" style="fill:none;stroke:#ff0;stroke-linecap:round;stroke-linejoin:round;stroke-width:1.5px"/><path d="M33.49,8.7s-.24-3.77,3.23-3.78S40.06,7.57,40,9.8" style="fill:none;stroke:#ff0;stroke-linecap:round;stroke-linejoin:round;stroke-width:1.5px"/><path d="M39.9,37.42l5.54-6.78a3.57,3.57,0,0,0,.81-1.94L46.42,27" style="fill:none;stroke:#ff0;stroke-linecap:round;stroke-linejoin:round;stroke-width:1.5px"/><path d="M47.32,17.47l.13-1.55a3,3,0,0,0-1.88-3.05l-2.4-.95" style="fill:none;stroke:#ff0;stroke-linecap:round;stroke-linejoin:round;stroke-width:1.5px"/><path d="M20.62,40.09,17.92,55s-.4,3.32,15.86,3.32c9.19,0,14.59-4,14.59-4L43.72,37.42" style="fill:none;stroke:#ff0;stroke-linecap:round;stroke-linejoin:round;stroke-width:1.5px"/><path d="M21.1,51.83a13.17,13.17,0,0,0,7.83,1.45l1.26-3.15h5.33l1.13,3.29A12.59,12.59,0,0,0,44,52.18L41,41.39" style="fill:none;stroke:#ff0;stroke-linecap:round;stroke-linejoin:round;stroke-width:1.5px"/><path d="M16.06,16.42V13.7A3,3,0,0,1,19,11.59a2.7,2.7,0,0,1,2.81,2" style="fill:none;stroke:#fff;stroke-linecap:round;stroke-linejoin:round;stroke-width:0.5px"/><path d="M17.23,27.75c.71,2.25,1.61,5,2.28,7.06A4.77,4.77,0,0,0,23,38l3.92.86" style="fill:none;stroke:#fff;stroke-linecap:round;stroke-linejoin:round;stroke-width:0.5px"/><path d="M20.62,12s-.24-3.78,3.23-3.79,3.34,2.66,3.3,4.88" style="fill:none;stroke:#fff;stroke-linecap:round;stroke-linejoin:round;stroke-width:0.5px"/><path d="M27,10.3s-.25-3.78,3.22-3.79,3.34,2.66,3.31,4.88" style="fill:none;stroke:#fff;stroke-linecap:round;stroke-linejoin:round;stroke-width:0.5px"/><path d="M33.49,8.7s-.24-3.77,3.23-3.78S40.06,7.57,40,9.8" style="fill:none;stroke:#fff;stroke-linecap:round;stroke-linejoin:round;stroke-width:0.5px"/><path d="M39.9,37.42l5.54-6.78a3.57,3.57,0,0,0,.81-1.94L46.42,27" style="fill:none;stroke:#fff;stroke-linecap:round;stroke-linejoin:round;stroke-width:0.5px"/><path d="M47.32,17.47l.13-1.55a3,3,0,0,0-1.88-3.05l-2.4-.95" style="fill:none;stroke:#fff;stroke-linecap:round;stroke-linejoin:round;stroke-width:0.5px"/><path d="M20.62,40.09,17.92,55s-.4,3.32,15.86,3.32c9.19,0,14.59-4,14.59-4L43.72,37.42" style="fill:none;stroke:#fff;stroke-linecap:round;stroke-linejoin:round;stroke-width:0.5px"/><path d="M21.1,51.83a13.17,13.17,0,0,0,7.83,1.45l1.26-3.15h5.33l1.13,3.29A12.59,12.59,0,0,0,44,52.18L41,41.39" style="fill:none;stroke:#fff;stroke-linecap:round;stroke-linejoin:round;stroke-width:0.5px"/><ellipse cx="17.73" cy="22.04" rx="2.28" ry="2.77" style="fill:none;stroke:#ff6800;stroke-linecap:round;stroke-linejoin:round;stroke-width:3px"/><ellipse cx="17.73" cy="22.04" rx="2.28" ry="2.77" style="fill:none;stroke:#ffb700;stroke-linecap:round;stroke-linejoin:round;stroke-width:1.5px"/><ellipse cx="17.73" cy="22.04" rx="2.28" ry="2.77" style="fill:none;stroke:#ff0;stroke-linecap:round;stroke-linejoin:round;stroke-width:0.5px"/><ellipse cx="37.8" cy="16.12" rx="2.28" ry="2.77" style="fill:none;stroke:#ff2ae9;stroke-linecap:round;stroke-linejoin:round;stroke-width:3px"/><ellipse cx="37.8" cy="16.12" rx="2.28" ry="2.77" style="fill:none;stroke:#ff90fc;stroke-linecap:round;stroke-linejoin:round;stroke-width:1.5px"/><ellipse cx="37.8" cy="16.12" rx="2.28" ry="2.77" style="fill:none;stroke:#ffd0ee;stroke-linecap:round;stroke-linejoin:round;stroke-width:0.5px"/><ellipse cx="31.04" cy="17.02" rx="2.28" ry="2.77" style="fill:none;stroke:#4097ed;stroke-linecap:round;stroke-linejoin:round;stroke-width:3px"/><ellipse cx="31.04" cy="17.02" rx="2.28" ry="2.77" style="fill:none;stroke:#00e6f0;stroke-linecap:round;stroke-linejoin:round;stroke-width:1.5px"/><ellipse cx="31.04" cy="17.02" rx="2.28" ry="2.77" style="fill:none;stroke:#e6e7e8;stroke-linecap:round;stroke-linejoin:round;stroke-width:0.5px"/></svg>